<svg width="385" height="72" viewBox="0 0 385 72" fill="none" xmlns="http://www.w3.org/2000/svg">
<rect width="385" height="72" rx="5" fill="#51358D"/>
<path d="M106.346 48V22.4062H114.221C116.471 22.4062 118.481 22.916 120.251 23.9355C122.032 24.9434 123.421 26.3848 124.417 28.2598C125.413 30.123 125.911 32.2441 125.911 34.623V35.8008C125.911 38.1797 125.419 40.2949 124.434 42.1465C123.462 43.998 122.085 45.4336 120.304 46.4531C118.522 47.4727 116.512 47.9883 114.274 48H106.346ZM111.62 26.6777V43.7637H114.169C116.231 43.7637 117.807 43.0898 118.897 41.7422C119.987 40.3945 120.544 38.4668 120.567 35.959V34.6055C120.567 32.0039 120.028 30.0352 118.95 28.6992C117.872 27.3516 116.296 26.6777 114.221 26.6777H111.62ZM136.74 48.3516C133.951 48.3516 131.678 47.4961 129.92 45.7852C128.174 44.0742 127.301 41.7949 127.301 38.9473V38.4551C127.301 36.5449 127.67 34.8398 128.408 33.3398C129.147 31.8281 130.19 30.668 131.537 29.8594C132.897 29.0391 134.444 28.6289 136.178 28.6289C138.78 28.6289 140.824 29.4492 142.313 31.0898C143.813 32.7305 144.563 35.0566 144.563 38.0684V40.1426H132.451C132.615 41.3848 133.108 42.3809 133.928 43.1309C134.76 43.8809 135.809 44.2559 137.074 44.2559C139.031 44.2559 140.561 43.5469 141.662 42.1289L144.158 44.9238C143.397 46.002 142.365 46.8457 141.065 47.4551C139.764 48.0527 138.322 48.3516 136.74 48.3516ZM136.16 32.7422C135.153 32.7422 134.332 33.082 133.699 33.7617C133.078 34.4414 132.68 35.4141 132.504 36.6797H139.571V36.2754C139.547 35.1504 139.242 34.2832 138.656 33.6738C138.071 33.0527 137.239 32.7422 136.16 32.7422ZM156.324 42.7441C156.324 42.123 156.013 41.6367 155.392 41.2852C154.783 40.9219 153.799 40.5996 152.439 40.3184C147.916 39.3691 145.654 37.4473 145.654 34.5527C145.654 32.8652 146.351 31.459 147.746 30.334C149.152 29.1973 150.986 28.6289 153.248 28.6289C155.662 28.6289 157.59 29.1973 159.031 30.334C160.484 31.4707 161.211 32.9473 161.211 34.7637H156.131C156.131 34.0371 155.896 33.4395 155.427 32.9707C154.959 32.4902 154.226 32.25 153.23 32.25C152.375 32.25 151.713 32.4434 151.244 32.8301C150.775 33.2168 150.541 33.709 150.541 34.3066C150.541 34.8691 150.804 35.3262 151.332 35.6777C151.871 36.0176 152.773 36.3164 154.039 36.5742C155.304 36.8203 156.371 37.1016 157.238 37.418C159.922 38.4023 161.263 40.1074 161.263 42.5332C161.263 44.2676 160.519 45.6738 159.031 46.752C157.543 47.8184 155.621 48.3516 153.265 48.3516C151.672 48.3516 150.254 48.0703 149.011 47.5078C147.781 46.9336 146.814 46.1543 146.111 45.1699C145.408 44.1738 145.056 43.1016 145.056 41.9531H149.873C149.92 42.8555 150.254 43.5469 150.875 44.0273C151.496 44.5078 152.328 44.748 153.371 44.748C154.343 44.748 155.076 44.5664 155.568 44.2031C156.072 43.8281 156.324 43.3418 156.324 42.7441ZM174.132 48C173.898 47.543 173.728 46.9746 173.622 46.2949C172.392 47.666 170.792 48.3516 168.823 48.3516C166.96 48.3516 165.413 47.8125 164.183 46.7344C162.964 45.6562 162.355 44.2969 162.355 42.6562C162.355 40.6406 163.099 39.0938 164.587 38.0156C166.087 36.9375 168.249 36.3926 171.073 36.3809H173.411V35.291C173.411 34.4121 173.183 33.709 172.726 33.1816C172.28 32.6543 171.571 32.3906 170.599 32.3906C169.743 32.3906 169.069 32.5957 168.577 33.0059C168.097 33.416 167.857 33.9785 167.857 34.6934H162.776C162.776 33.5918 163.116 32.5723 163.796 31.6348C164.476 30.6973 165.437 29.9648 166.679 29.4375C167.921 28.8984 169.316 28.6289 170.862 28.6289C173.206 28.6289 175.064 29.2207 176.435 30.4043C177.817 31.5762 178.509 33.2285 178.509 35.3613V43.6055C178.521 45.4102 178.773 46.7754 179.265 47.7012V48H174.132ZM169.931 44.4668C170.681 44.4668 171.372 44.3027 172.005 43.9746C172.638 43.6348 173.107 43.1836 173.411 42.6211V39.3516H171.513C168.97 39.3516 167.616 40.2305 167.452 41.9883L167.435 42.2871C167.435 42.9199 167.657 43.4414 168.103 43.8516C168.548 44.2617 169.157 44.4668 169.931 44.4668ZM186.333 48H181.235V28.9805H186.333V48ZM180.936 24.0586C180.936 23.2969 181.188 22.6699 181.692 22.1777C182.208 21.6855 182.905 21.4395 183.784 21.4395C184.651 21.4395 185.342 21.6855 185.858 22.1777C186.374 22.6699 186.631 23.2969 186.631 24.0586C186.631 24.832 186.368 25.4648 185.84 25.957C185.325 26.4492 184.639 26.6953 183.784 26.6953C182.928 26.6953 182.237 26.4492 181.71 25.957C181.194 25.4648 180.936 24.832 180.936 24.0586ZM193.77 28.9805L193.928 31.1777C195.287 29.4785 197.109 28.6289 199.395 28.6289C201.41 28.6289 202.91 29.2207 203.895 30.4043C204.879 31.5879 205.383 33.3574 205.406 35.7129V48H200.326V35.8359C200.326 34.7578 200.092 33.9785 199.623 33.498C199.154 33.0059 198.375 32.7598 197.285 32.7598C195.855 32.7598 194.783 33.3691 194.068 34.5879V48H188.988V28.9805H193.77ZM233.903 26.6777H226.063V48H220.79V26.6777H213.056V22.4062H233.903V26.6777ZM230.705 38.3145C230.705 36.4277 231.069 34.7461 231.795 33.2695C232.522 31.793 233.565 30.6504 234.924 29.8418C236.295 29.0332 237.883 28.6289 239.688 28.6289C242.254 28.6289 244.346 29.4141 245.963 30.9844C247.592 32.5547 248.5 34.6875 248.688 37.3828L248.723 38.6836C248.723 41.6016 247.909 43.9453 246.28 45.7148C244.651 47.4727 242.465 48.3516 239.723 48.3516C236.981 48.3516 234.789 47.4727 233.149 45.7148C231.52 43.957 230.705 41.5664 230.705 38.543V38.3145ZM235.785 38.6836C235.785 40.4883 236.125 41.8711 236.805 42.832C237.485 43.7812 238.457 44.2559 239.723 44.2559C240.953 44.2559 241.914 43.7871 242.606 42.8496C243.297 41.9004 243.643 40.3887 243.643 38.3145C243.643 36.5449 243.297 35.1738 242.606 34.2012C241.914 33.2285 240.942 32.7422 239.688 32.7422C238.446 32.7422 237.485 33.2285 236.805 34.2012C236.125 35.1621 235.785 36.6562 235.785 38.6836ZM249.621 38.3145C249.621 36.4277 249.984 34.7461 250.711 33.2695C251.437 31.793 252.48 30.6504 253.84 29.8418C255.211 29.0332 256.799 28.6289 258.603 28.6289C261.17 28.6289 263.261 29.4141 264.879 30.9844C266.508 32.5547 267.416 34.6875 267.603 37.3828L267.638 38.6836C267.638 41.6016 266.824 43.9453 265.195 45.7148C263.566 47.4727 261.381 48.3516 258.638 48.3516C255.896 48.3516 253.705 47.4727 252.064 45.7148C250.435 43.957 249.621 41.5664 249.621 38.543V38.3145ZM254.701 38.6836C254.701 40.4883 255.041 41.8711 255.72 42.832C256.4 43.7812 257.373 44.2559 258.638 44.2559C259.869 44.2559 260.83 43.7871 261.521 42.8496C262.213 41.9004 262.558 40.3887 262.558 38.3145C262.558 36.5449 262.213 35.1738 261.521 34.2012C260.83 33.2285 259.857 32.7422 258.603 32.7422C257.361 32.7422 256.4 33.2285 255.72 34.2012C255.041 35.1621 254.701 36.6562 254.701 38.6836ZM274.689 48H269.591V21H274.689V48Z" fill="white"/>
</svg>
