<svg width="816" height="83" viewBox="0 0 816 83" fill="none" xmlns="http://www.w3.org/2000/svg">
<rect width="816" height="83" rx="10" fill="#365DEA"/>
<path d="M39.4167 17H100.917C101.823 17 102.692 17.281 103.333 17.781C103.973 18.2811 104.333 18.9594 104.333 19.6667V62.3333C104.333 63.0406 103.973 63.7189 103.333 64.219C102.692 64.7191 101.823 65 100.917 65H39.4167C38.5105 65 37.6415 64.7191 37.0007 64.219C36.36 63.7189 36 63.0406 36 62.3333V19.6667C36 18.9594 36.36 18.2811 37.0007 17.781C37.6415 17.281 38.5105 17 39.4167 17ZM97.5 28.3013L70.4127 47.2347L42.8333 28.2427V59.6667H97.5V28.3013ZM44.5793 22.3333L70.3751 40.0987L95.7985 22.3333H44.5793Z" fill="white"/>
<path d="M159.875 41.9082H149.75V48.7637H161.633V53H144.477V27.4062H161.598V31.6777H149.75V37.7773H159.875V41.9082ZM172.832 44.0879H162.935V39.9922H172.832V44.0879ZM180.234 33.9805L180.392 36.1074C181.74 34.4551 183.562 33.6289 185.859 33.6289C188.308 33.6289 189.99 34.5957 190.904 36.5293C192.24 34.5957 194.144 33.6289 196.616 33.6289C198.679 33.6289 200.214 34.2324 201.222 35.4395C202.23 36.6348 202.734 38.4395 202.734 40.8535V53H197.636V40.8711C197.636 39.793 197.425 39.0078 197.003 38.5156C196.581 38.0117 195.837 37.7598 194.771 37.7598C193.247 37.7598 192.193 38.4863 191.607 39.9395L191.624 53H186.544V40.8887C186.544 39.7871 186.327 38.9902 185.894 38.498C185.46 38.0059 184.722 37.7598 183.679 37.7598C182.238 37.7598 181.195 38.3574 180.55 39.5527V53H175.47V33.9805H180.234ZM216.235 53C216.001 52.543 215.831 51.9746 215.725 51.2949C214.495 52.666 212.895 53.3516 210.926 53.3516C209.063 53.3516 207.516 52.8125 206.286 51.7344C205.067 50.6562 204.458 49.2969 204.458 47.6562C204.458 45.6406 205.202 44.0938 206.69 43.0156C208.19 41.9375 210.352 41.3926 213.176 41.3809H215.514V40.291C215.514 39.4121 215.286 38.709 214.829 38.1816C214.384 37.6543 213.675 37.3906 212.702 37.3906C211.846 37.3906 211.173 37.5957 210.68 38.0059C210.2 38.416 209.96 38.9785 209.96 39.6934H204.88C204.88 38.5918 205.219 37.5723 205.899 36.6348C206.579 35.6973 207.54 34.9648 208.782 34.4375C210.024 33.8984 211.419 33.6289 212.966 33.6289C215.309 33.6289 217.167 34.2207 218.538 35.4043C219.921 36.5762 220.612 38.2285 220.612 40.3613V48.6055C220.624 50.4102 220.876 51.7754 221.368 52.7012V53H216.235ZM212.034 49.4668C212.784 49.4668 213.475 49.3027 214.108 48.9746C214.741 48.6348 215.21 48.1836 215.514 47.6211V44.3516H213.616C211.073 44.3516 209.719 45.2305 209.555 46.9883L209.538 47.2871C209.538 47.9199 209.76 48.4414 210.206 48.8516C210.651 49.2617 211.26 49.4668 212.034 49.4668ZM228.436 53H223.338V33.9805H228.436V53ZM223.039 29.0586C223.039 28.2969 223.291 27.6699 223.795 27.1777C224.311 26.6855 225.008 26.4395 225.887 26.4395C226.754 26.4395 227.445 26.6855 227.961 27.1777C228.477 27.6699 228.735 28.2969 228.735 29.0586C228.735 29.832 228.471 30.4648 227.944 30.957C227.428 31.4492 226.742 31.6953 225.887 31.6953C225.031 31.6953 224.34 31.4492 223.813 30.957C223.297 30.4648 223.039 29.832 223.039 29.0586ZM236.558 53H231.461V26H236.558V53Z" fill="white"/>
<line x1="275.5" y1="8" x2="275.5" y2="73" stroke="white"/>
<path d="M339.91 35.87C340.41 35.03 341.07 34.38 341.89 33.92C342.73 33.44 343.72 33.2 344.86 33.2V36.74H343.99C342.65 36.74 341.63 37.08 340.93 37.76C340.25 38.44 339.91 39.62 339.91 41.3V50H336.49V33.47H339.91V35.87ZM345.663 41.66C345.663 40 346.003 38.53 346.683 37.25C347.383 35.97 348.323 34.98 349.503 34.28C350.703 33.56 352.023 33.2 353.463 33.2C354.763 33.2 355.893 33.46 356.853 33.98C357.833 34.48 358.613 35.11 359.193 35.87V33.47H362.643V50H359.193V47.54C358.613 48.32 357.823 48.97 356.823 49.49C355.823 50.01 354.683 50.27 353.403 50.27C351.983 50.27 350.683 49.91 349.503 49.19C348.323 48.45 347.383 47.43 346.683 46.13C346.003 44.81 345.663 43.32 345.663 41.66ZM359.193 41.72C359.193 40.58 358.953 39.59 358.473 38.75C358.013 37.91 357.403 37.27 356.643 36.83C355.883 36.39 355.063 36.17 354.183 36.17C353.303 36.17 352.483 36.39 351.723 36.83C350.963 37.25 350.343 37.88 349.863 38.72C349.403 39.54 349.173 40.52 349.173 41.66C349.173 42.8 349.403 43.8 349.863 44.66C350.343 45.52 350.963 46.18 351.723 46.64C352.503 47.08 353.323 47.3 354.183 47.3C355.063 47.3 355.883 47.08 356.643 46.64C357.403 46.2 358.013 45.56 358.473 44.72C358.953 43.86 359.193 42.86 359.193 41.72ZM374.275 33.2C375.575 33.2 376.735 33.47 377.755 34.01C378.795 34.55 379.605 35.35 380.185 36.41C380.765 37.47 381.055 38.75 381.055 40.25V50H377.665V40.76C377.665 39.28 377.295 38.15 376.555 37.37C375.815 36.57 374.805 36.17 373.525 36.17C372.245 36.17 371.225 36.57 370.465 37.37C369.725 38.15 369.355 39.28 369.355 40.76V50H365.935V33.47H369.355V35.36C369.915 34.68 370.625 34.15 371.485 33.77C372.365 33.39 373.295 33.2 374.275 33.2ZM390.878 33.2C392.158 33.2 393.288 33.46 394.268 33.98C395.268 34.48 396.048 35.11 396.608 35.87V33.47H400.058V50.27C400.058 51.79 399.738 53.14 399.098 54.32C398.458 55.52 397.528 56.46 396.308 57.14C395.108 57.82 393.668 58.16 391.988 58.16C389.748 58.16 387.888 57.63 386.408 56.57C384.928 55.53 384.088 54.11 383.888 52.31H387.278C387.538 53.17 388.088 53.86 388.928 54.38C389.788 54.92 390.808 55.19 391.988 55.19C393.368 55.19 394.478 54.77 395.318 53.93C396.178 53.09 396.608 51.87 396.608 50.27V47.51C396.028 48.29 395.238 48.95 394.238 49.49C393.258 50.01 392.138 50.27 390.878 50.27C389.438 50.27 388.118 49.91 386.918 49.19C385.738 48.45 384.798 47.43 384.098 46.13C383.418 44.81 383.078 43.32 383.078 41.66C383.078 40 383.418 38.53 384.098 37.25C384.798 35.97 385.738 34.98 386.918 34.28C388.118 33.56 389.438 33.2 390.878 33.2ZM396.608 41.72C396.608 40.58 396.368 39.59 395.888 38.75C395.428 37.91 394.818 37.27 394.058 36.83C393.298 36.39 392.478 36.17 391.598 36.17C390.718 36.17 389.898 36.39 389.138 36.83C388.378 37.25 387.758 37.88 387.278 38.72C386.818 39.54 386.588 40.52 386.588 41.66C386.588 42.8 386.818 43.8 387.278 44.66C387.758 45.52 388.378 46.18 389.138 46.64C389.918 47.08 390.738 47.3 391.598 47.3C392.478 47.3 393.298 47.08 394.058 46.64C394.818 46.2 395.428 45.56 395.888 44.72C396.368 43.86 396.608 42.86 396.608 41.72ZM410.01 33.2C411.29 33.2 412.42 33.46 413.4 33.98C414.4 34.48 415.18 35.11 415.74 35.87V33.47H419.19V50.27C419.19 51.79 418.87 53.14 418.23 54.32C417.59 55.52 416.66 56.46 415.44 57.14C414.24 57.82 412.8 58.16 411.12 58.16C408.88 58.16 407.02 57.63 405.54 56.57C404.06 55.53 403.22 54.11 403.02 52.31H406.41C406.67 53.17 407.22 53.86 408.06 54.38C408.92 54.92 409.94 55.19 411.12 55.19C412.5 55.19 413.61 54.77 414.45 53.93C415.31 53.09 415.74 51.87 415.74 50.27V47.51C415.16 48.29 414.37 48.95 413.37 49.49C412.39 50.01 411.27 50.27 410.01 50.27C408.57 50.27 407.25 49.91 406.05 49.19C404.87 48.45 403.93 47.43 403.23 46.13C402.55 44.81 402.21 43.32 402.21 41.66C402.21 40 402.55 38.53 403.23 37.25C403.93 35.97 404.87 34.98 406.05 34.28C407.25 33.56 408.57 33.2 410.01 33.2ZM415.74 41.72C415.74 40.58 415.5 39.59 415.02 38.75C414.56 37.91 413.95 37.27 413.19 36.83C412.43 36.39 411.61 36.17 410.73 36.17C409.85 36.17 409.03 36.39 408.27 36.83C407.51 37.25 406.89 37.88 406.41 38.72C405.95 39.54 405.72 40.52 405.72 41.66C405.72 42.8 405.95 43.8 406.41 44.66C406.89 45.52 407.51 46.18 408.27 46.64C409.05 47.08 409.87 47.3 410.73 47.3C411.61 47.3 412.43 47.08 413.19 46.64C413.95 46.2 414.56 45.56 415.02 44.72C415.5 43.86 415.74 42.86 415.74 41.72ZM421.342 41.66C421.342 40 421.682 38.53 422.362 37.25C423.062 35.97 424.002 34.98 425.182 34.28C426.382 33.56 427.702 33.2 429.142 33.2C430.442 33.2 431.572 33.46 432.532 33.98C433.512 34.48 434.292 35.11 434.872 35.87V33.47H438.322V50H434.872V47.54C434.292 48.32 433.502 48.97 432.502 49.49C431.502 50.01 430.362 50.27 429.082 50.27C427.662 50.27 426.362 49.91 425.182 49.19C424.002 48.45 423.062 47.43 422.362 46.13C421.682 44.81 421.342 43.32 421.342 41.66ZM434.872 41.72C434.872 40.58 434.632 39.59 434.152 38.75C433.692 37.91 433.082 37.27 432.322 36.83C431.562 36.39 430.742 36.17 429.862 36.17C428.982 36.17 428.162 36.39 427.402 36.83C426.642 37.25 426.022 37.88 425.542 38.72C425.082 39.54 424.852 40.52 424.852 41.66C424.852 42.8 425.082 43.8 425.542 44.66C426.022 45.52 426.642 46.18 427.402 46.64C428.182 47.08 429.002 47.3 429.862 47.3C430.742 47.3 431.562 47.08 432.322 46.64C433.082 46.2 433.692 45.56 434.152 44.72C434.632 43.86 434.872 42.86 434.872 41.72ZM440.714 31.25V28.13H446.954V50H443.504V31.25H440.714ZM464.312 30.77L455.972 50H452.522L460.952 31.13H449.852V28.22H464.312V30.77ZM466.039 38.78C466.039 35.32 466.619 32.62 467.779 30.68C468.959 28.72 470.979 27.74 473.839 27.74C476.699 27.74 478.709 28.72 479.869 30.68C481.049 32.62 481.639 35.32 481.639 38.78C481.639 42.28 481.049 45.02 479.869 47C478.709 48.96 476.699 49.94 473.839 49.94C470.979 49.94 468.959 48.96 467.779 47C466.619 45.02 466.039 42.28 466.039 38.78ZM478.279 38.78C478.279 37.16 478.169 35.79 477.949 34.67C477.749 33.55 477.329 32.64 476.689 31.94C476.049 31.22 475.099 30.86 473.839 30.86C472.579 30.86 471.629 31.22 470.989 31.94C470.349 32.64 469.919 33.55 469.699 34.67C469.499 35.79 469.399 37.16 469.399 38.78C469.399 40.46 469.499 41.87 469.699 43.01C469.899 44.15 470.319 45.07 470.959 45.77C471.619 46.47 472.579 46.82 473.839 46.82C475.099 46.82 476.049 46.47 476.689 45.77C477.349 45.07 477.779 44.15 477.979 43.01C478.179 41.87 478.279 40.46 478.279 38.78ZM485.948 45.35C487.868 43.69 489.378 42.33 490.478 41.27C491.598 40.19 492.528 39.07 493.268 37.91C494.008 36.75 494.378 35.59 494.378 34.43C494.378 33.23 494.088 32.29 493.508 31.61C492.948 30.93 492.058 30.59 490.838 30.59C489.658 30.59 488.738 30.97 488.078 31.73C487.438 32.47 487.098 33.47 487.058 34.73H483.758C483.818 32.45 484.498 30.71 485.798 29.51C487.118 28.29 488.788 27.68 490.808 27.68C492.988 27.68 494.688 28.28 495.908 29.48C497.148 30.68 497.768 32.28 497.768 34.28C497.768 35.72 497.398 37.11 496.658 38.45C495.938 39.77 495.068 40.96 494.048 42.02C493.048 43.06 491.768 44.27 490.208 45.65L488.858 46.85H498.368V49.7H483.788V47.21L485.948 45.35ZM500.172 38.78C500.172 35.32 500.752 32.62 501.912 30.68C503.092 28.72 505.112 27.74 507.972 27.74C510.832 27.74 512.842 28.72 514.002 30.68C515.182 32.62 515.772 35.32 515.772 38.78C515.772 42.28 515.182 45.02 514.002 47C512.842 48.96 510.832 49.94 507.972 49.94C505.112 49.94 503.092 48.96 501.912 47C500.752 45.02 500.172 42.28 500.172 38.78ZM512.412 38.78C512.412 37.16 512.302 35.79 512.082 34.67C511.882 33.55 511.462 32.64 510.822 31.94C510.182 31.22 509.232 30.86 507.972 30.86C506.712 30.86 505.762 31.22 505.122 31.94C504.482 32.64 504.052 33.55 503.832 34.67C503.632 35.79 503.532 37.16 503.532 38.78C503.532 40.46 503.632 41.87 503.832 43.01C504.032 44.15 504.452 45.07 505.092 45.77C505.752 46.47 506.712 46.82 507.972 46.82C509.232 46.82 510.182 46.47 510.822 45.77C511.482 45.07 511.912 44.15 512.112 43.01C512.312 41.87 512.412 40.46 512.412 38.78ZM517.771 45.44V42.86L527.851 28.4H531.991V42.47H534.781V45.44H531.991V50H528.631V45.44H517.771ZM528.781 31.88L521.701 42.47H528.781V31.88ZM552.255 30.62C554.535 30.62 556.505 31.04 558.165 31.88C559.825 32.72 561.085 33.9 561.945 35.42C562.825 36.92 563.265 38.67 563.265 40.67C563.265 42.27 562.985 43.8 562.425 45.26C561.885 46.72 561.095 47.91 560.055 48.83C559.035 49.75 557.825 50.21 556.425 50.21C555.405 50.21 554.605 49.99 554.025 49.55C553.445 49.09 553.085 48.45 552.945 47.63C552.325 48.43 551.545 49.06 550.605 49.52C549.665 49.98 548.685 50.21 547.665 50.21C546.125 50.21 544.915 49.75 544.035 48.83C543.175 47.89 542.745 46.62 542.745 45.02C542.745 43.5 543.055 42.08 543.675 40.76C544.315 39.44 545.205 38.39 546.345 37.61C547.485 36.81 548.765 36.41 550.185 36.41C551.925 36.41 553.145 37 553.845 38.18L554.115 36.68H557.085L555.585 45.26C555.525 45.68 555.495 46.05 555.495 46.37C555.495 46.89 555.595 47.28 555.795 47.54C556.015 47.8 556.395 47.93 556.935 47.93C557.695 47.93 558.345 47.56 558.885 46.82C559.425 46.06 559.825 45.13 560.085 44.03C560.365 42.93 560.505 41.86 560.505 40.82C560.505 38.28 559.765 36.34 558.285 35C556.805 33.66 554.655 32.99 551.835 32.99C549.475 32.99 547.355 33.55 545.475 34.67C543.615 35.79 542.155 37.33 541.095 39.29C540.035 41.25 539.505 43.43 539.505 45.83C539.505 48.39 540.265 50.34 541.785 51.68C543.305 53.02 545.475 53.69 548.295 53.69C550.195 53.69 551.855 53.34 553.275 52.64L553.725 54.92C551.905 55.7 549.865 56.09 547.605 56.09C545.425 56.09 543.515 55.68 541.875 54.86C540.235 54.04 538.965 52.87 538.065 51.35C537.165 49.85 536.715 48.1 536.715 46.1C536.715 43.24 537.375 40.63 538.695 38.27C540.035 35.91 541.885 34.05 544.245 32.69C546.605 31.31 549.275 30.62 552.255 30.62ZM548.715 47.57C549.555 47.57 550.315 47.33 550.995 46.85C551.695 46.35 552.245 45.7 552.645 44.9C553.045 44.08 553.245 43.21 553.245 42.29C553.245 41.33 552.975 40.55 552.435 39.95C551.915 39.33 551.175 39.02 550.215 39.02C549.355 39.02 548.595 39.29 547.935 39.83C547.295 40.35 546.795 41.03 546.435 41.87C546.095 42.71 545.925 43.59 545.925 44.51C545.925 45.45 546.155 46.2 546.615 46.76C547.075 47.3 547.775 47.57 548.715 47.57ZM573.087 33.2C574.367 33.2 575.497 33.46 576.477 33.98C577.477 34.48 578.257 35.11 578.817 35.87V33.47H582.267V50.27C582.267 51.79 581.947 53.14 581.307 54.32C580.667 55.52 579.737 56.46 578.517 57.14C577.317 57.82 575.877 58.16 574.197 58.16C571.957 58.16 570.097 57.63 568.617 56.57C567.137 55.53 566.297 54.11 566.097 52.31H569.487C569.747 53.17 570.297 53.86 571.137 54.38C571.997 54.92 573.017 55.19 574.197 55.19C575.577 55.19 576.687 54.77 577.527 53.93C578.387 53.09 578.817 51.87 578.817 50.27V47.51C578.237 48.29 577.447 48.95 576.447 49.49C575.467 50.01 574.347 50.27 573.087 50.27C571.647 50.27 570.327 49.91 569.127 49.19C567.947 48.45 567.007 47.43 566.307 46.13C565.627 44.81 565.287 43.32 565.287 41.66C565.287 40 565.627 38.53 566.307 37.25C567.007 35.97 567.947 34.98 569.127 34.28C570.327 33.56 571.647 33.2 573.087 33.2ZM578.817 41.72C578.817 40.58 578.577 39.59 578.097 38.75C577.637 37.91 577.027 37.27 576.267 36.83C575.507 36.39 574.687 36.17 573.807 36.17C572.927 36.17 572.107 36.39 571.347 36.83C570.587 37.25 569.967 37.88 569.487 38.72C569.027 39.54 568.797 40.52 568.797 41.66C568.797 42.8 569.027 43.8 569.487 44.66C569.967 45.52 570.587 46.18 571.347 46.64C572.127 47.08 572.947 47.3 573.807 47.3C574.687 47.3 575.507 47.08 576.267 46.64C577.027 46.2 577.637 45.56 578.097 44.72C578.577 43.86 578.817 42.86 578.817 41.72ZM605.569 33.2C606.869 33.2 608.029 33.47 609.049 34.01C610.089 34.55 610.899 35.35 611.479 36.41C612.079 37.47 612.379 38.75 612.379 40.25V50H608.989V40.76C608.989 39.28 608.619 38.15 607.879 37.37C607.139 36.57 606.129 36.17 604.849 36.17C603.569 36.17 602.549 36.57 601.789 37.37C601.049 38.15 600.679 39.28 600.679 40.76V50H597.289V40.76C597.289 39.28 596.919 38.15 596.179 37.37C595.439 36.57 594.429 36.17 593.149 36.17C591.869 36.17 590.849 36.57 590.089 37.37C589.349 38.15 588.979 39.28 588.979 40.76V50H585.559V33.47H588.979V35.36C589.539 34.68 590.249 34.15 591.109 33.77C591.969 33.39 592.889 33.2 593.869 33.2C595.189 33.2 596.369 33.48 597.409 34.04C598.449 34.6 599.249 35.41 599.809 36.47C600.309 35.47 601.089 34.68 602.149 34.1C603.209 33.5 604.349 33.2 605.569 33.2ZM614.391 41.66C614.391 40 614.731 38.53 615.411 37.25C616.111 35.97 617.051 34.98 618.231 34.28C619.431 33.56 620.751 33.2 622.191 33.2C623.491 33.2 624.621 33.46 625.581 33.98C626.561 34.48 627.341 35.11 627.921 35.87V33.47H631.371V50H627.921V47.54C627.341 48.32 626.551 48.97 625.551 49.49C624.551 50.01 623.411 50.27 622.131 50.27C620.711 50.27 619.411 49.91 618.231 49.19C617.051 48.45 616.111 47.43 615.411 46.13C614.731 44.81 614.391 43.32 614.391 41.66ZM627.921 41.72C627.921 40.58 627.681 39.59 627.201 38.75C626.741 37.91 626.131 37.27 625.371 36.83C624.611 36.39 623.791 36.17 622.911 36.17C622.031 36.17 621.211 36.39 620.451 36.83C619.691 37.25 619.071 37.88 618.591 38.72C618.131 39.54 617.901 40.52 617.901 41.66C617.901 42.8 618.131 43.8 618.591 44.66C619.071 45.52 619.691 46.18 620.451 46.64C621.231 47.08 622.051 47.3 622.911 47.3C623.791 47.3 624.611 47.08 625.371 46.64C626.131 46.2 626.741 45.56 627.201 44.72C627.681 43.86 627.921 42.86 627.921 41.72ZM636.403 31.28C635.783 31.28 635.263 31.07 634.843 30.65C634.423 30.23 634.213 29.71 634.213 29.09C634.213 28.47 634.423 27.95 634.843 27.53C635.263 27.11 635.783 26.9 636.403 26.9C637.003 26.9 637.513 27.11 637.933 27.53C638.353 27.95 638.563 28.47 638.563 29.09C638.563 29.71 638.353 30.23 637.933 30.65C637.513 31.07 637.003 31.28 636.403 31.28ZM638.083 33.47V50H634.663V33.47H638.083ZM644.793 27.8V50H641.373V27.8H644.793ZM649.463 50.21C648.843 50.21 648.323 50 647.903 49.58C647.483 49.16 647.273 48.64 647.273 48.02C647.273 47.4 647.483 46.88 647.903 46.46C648.323 46.04 648.843 45.83 649.463 45.83C650.063 45.83 650.573 46.04 650.993 46.46C651.413 46.88 651.623 47.4 651.623 48.02C651.623 48.64 651.413 49.16 650.993 49.58C650.573 50 650.063 50.21 649.463 50.21ZM652.979 41.72C652.979 40.02 653.319 38.53 653.999 37.25C654.699 35.95 655.659 34.95 656.879 34.25C658.099 33.55 659.499 33.2 661.079 33.2C663.079 33.2 664.729 33.68 666.029 34.64C667.349 35.58 668.239 36.93 668.699 38.69H665.009C664.709 37.87 664.229 37.23 663.569 36.77C662.909 36.31 662.079 36.08 661.079 36.08C659.679 36.08 658.559 36.58 657.719 37.58C656.899 38.56 656.489 39.94 656.489 41.72C656.489 43.5 656.899 44.89 657.719 45.89C658.559 46.89 659.679 47.39 661.079 47.39C663.059 47.39 664.369 46.52 665.009 44.78H668.699C668.219 46.46 667.319 47.8 665.999 48.8C664.679 49.78 663.039 50.27 661.079 50.27C659.499 50.27 658.099 49.92 656.879 49.22C655.659 48.5 654.699 47.5 653.999 46.22C653.319 44.92 652.979 43.42 652.979 41.72ZM678.078 50.27C676.518 50.27 675.108 49.92 673.848 49.22C672.588 48.5 671.598 47.5 670.878 46.22C670.158 44.92 669.798 43.42 669.798 41.72C669.798 40.04 670.168 38.55 670.908 37.25C671.648 35.95 672.658 34.95 673.938 34.25C675.218 33.55 676.648 33.2 678.228 33.2C679.808 33.2 681.238 33.55 682.518 34.25C683.798 34.95 684.808 35.95 685.548 37.25C686.288 38.55 686.658 40.04 686.658 41.72C686.658 43.4 686.278 44.89 685.518 46.19C684.758 47.49 683.718 48.5 682.398 49.22C681.098 49.92 679.658 50.27 678.078 50.27ZM678.078 47.3C678.958 47.3 679.778 47.09 680.538 46.67C681.318 46.25 681.948 45.62 682.428 44.78C682.908 43.94 683.148 42.92 683.148 41.72C683.148 40.52 682.918 39.51 682.458 38.69C681.998 37.85 681.388 37.22 680.628 36.8C679.868 36.38 679.048 36.17 678.168 36.17C677.288 36.17 676.468 36.38 675.708 36.8C674.968 37.22 674.378 37.85 673.938 38.69C673.498 39.51 673.278 40.52 673.278 41.72C673.278 43.5 673.728 44.88 674.628 45.86C675.548 46.82 676.698 47.3 678.078 47.3ZM708.848 33.2C710.148 33.2 711.308 33.47 712.328 34.01C713.368 34.55 714.178 35.35 714.758 36.41C715.358 37.47 715.658 38.75 715.658 40.25V50H712.268V40.76C712.268 39.28 711.898 38.15 711.158 37.37C710.418 36.57 709.408 36.17 708.128 36.17C706.848 36.17 705.828 36.57 705.068 37.37C704.328 38.15 703.958 39.28 703.958 40.76V50H700.568V40.76C700.568 39.28 700.198 38.15 699.458 37.37C698.718 36.57 697.708 36.17 696.428 36.17C695.148 36.17 694.128 36.57 693.368 37.37C692.628 38.15 692.258 39.28 692.258 40.76V50H688.838V33.47H692.258V35.36C692.818 34.68 693.528 34.15 694.388 33.77C695.248 33.39 696.168 33.2 697.148 33.2C698.468 33.2 699.648 33.48 700.688 34.04C701.728 34.6 702.528 35.41 703.088 36.47C703.588 35.47 704.368 34.68 705.428 34.1C706.488 33.5 707.628 33.2 708.848 33.2Z" fill="white"/>
</svg>
