<svg width="385" height="72" viewBox="0 0 385 72" fill="none" xmlns="http://www.w3.org/2000/svg">
<rect width="385" height="72" rx="5" fill="#3300FF"/>
<path d="M35.5609 38.666C35.5609 41.5957 34.8929 43.9453 33.557 45.7148C32.2327 47.4727 30.4398 48.3516 28.1781 48.3516C26.2562 48.3516 24.7034 47.6836 23.5199 46.3477V55.3125H18.4398V28.9805H23.1507L23.3265 30.8438C24.557 29.3672 26.1624 28.6289 28.1429 28.6289C30.4866 28.6289 32.3089 29.4961 33.6097 31.2305C34.9105 32.9648 35.5609 35.3555 35.5609 38.4023V38.666ZM30.4808 38.2969C30.4808 36.5273 30.1644 35.1621 29.5316 34.2012C28.9105 33.2402 28.0023 32.7598 26.807 32.7598C25.2132 32.7598 24.1175 33.3691 23.5199 34.5879V42.375C24.1409 43.6289 25.2484 44.2559 26.8421 44.2559C29.2679 44.2559 30.4808 42.2695 30.4808 38.2969ZM47.9724 33.7441C47.281 33.6504 46.6716 33.6035 46.1443 33.6035C44.2224 33.6035 42.9627 34.2539 42.365 35.5547V48H37.2849V28.9805H42.0838L42.2244 31.248C43.2439 29.502 44.656 28.6289 46.4607 28.6289C47.0232 28.6289 47.5506 28.7051 48.0427 28.8574L47.9724 33.7441ZM47.5695 38.3145C47.5695 36.4277 47.9328 34.7461 48.6594 33.2695C49.3859 31.793 50.4289 30.6504 51.7883 29.8418C53.1594 29.0332 54.7473 28.6289 56.552 28.6289C59.1184 28.6289 61.2102 29.4141 62.8274 30.9844C64.4563 32.5547 65.3645 34.6875 65.552 37.3828L65.5871 38.6836C65.5871 41.6016 64.7727 43.9453 63.1438 45.7148C61.5149 47.4727 59.3293 48.3516 56.5871 48.3516C53.8449 48.3516 51.6535 47.4727 50.0129 45.7148C48.384 43.957 47.5695 41.5664 47.5695 38.543V38.3145ZM52.6496 38.6836C52.6496 40.4883 52.9895 41.8711 53.6691 42.832C54.3488 43.7812 55.3215 44.2559 56.5871 44.2559C57.8176 44.2559 58.7785 43.7871 59.4699 42.8496C60.1613 41.9004 60.507 40.3887 60.507 38.3145C60.507 36.5449 60.1613 35.1738 59.4699 34.2012C58.7785 33.2285 57.8059 32.7422 56.552 32.7422C55.3098 32.7422 54.3488 33.2285 53.6691 34.2012C52.9895 35.1621 52.6496 36.6562 52.6496 38.6836ZM66.5377 38.3496C66.5377 35.4316 67.2291 33.082 68.612 31.3008C70.0065 29.5195 71.8815 28.6289 74.237 28.6289C76.3229 28.6289 77.9459 29.3438 79.1061 30.7734L79.317 28.9805H83.9225V47.3672C83.9225 49.0312 83.5416 50.4785 82.7799 51.709C82.0299 52.9395 80.9694 53.877 79.5983 54.5215C78.2272 55.166 76.6217 55.4883 74.7819 55.4883C73.3874 55.4883 72.028 55.207 70.7038 54.6445C69.3795 54.0938 68.3776 53.3789 67.6979 52.5L69.9479 49.4062C71.2135 50.8242 72.7487 51.5332 74.5534 51.5332C75.901 51.5332 76.9499 51.1699 77.6999 50.4434C78.4499 49.7285 78.8249 48.709 78.8249 47.3848V46.3652C77.653 47.6895 76.112 48.3516 74.2018 48.3516C71.9166 48.3516 70.0651 47.4609 68.6471 45.6797C67.2409 43.8867 66.5377 41.5137 66.5377 38.5605V38.3496ZM71.6178 38.7188C71.6178 40.4414 71.9635 41.7949 72.6549 42.7793C73.3463 43.752 74.2956 44.2383 75.5026 44.2383C77.0495 44.2383 78.1569 43.6582 78.8249 42.498V34.5C78.1452 33.3398 77.0495 32.7598 75.5377 32.7598C74.319 32.7598 73.3581 33.2578 72.6549 34.2539C71.9635 35.25 71.6178 36.7383 71.6178 38.7188ZM97.0899 33.7441C96.3985 33.6504 95.7891 33.6035 95.2618 33.6035C93.3399 33.6035 92.0802 34.2539 91.4825 35.5547V48H86.4024V28.9805H91.2013L91.3419 31.248C92.3614 29.502 93.7735 28.6289 95.5782 28.6289C96.1407 28.6289 96.6681 28.7051 97.1602 28.8574L97.0899 33.7441ZM108.605 48C108.371 47.543 108.201 46.9746 108.095 46.2949C106.865 47.666 105.265 48.3516 103.296 48.3516C101.433 48.3516 99.8863 47.8125 98.6558 46.7344C97.437 45.6562 96.8277 44.2969 96.8277 42.6562C96.8277 40.6406 97.5718 39.0938 99.0601 38.0156C100.56 36.9375 102.722 36.3926 105.546 36.3809H107.884V35.291C107.884 34.4121 107.656 33.709 107.199 33.1816C106.753 32.6543 106.044 32.3906 105.072 32.3906C104.216 32.3906 103.543 32.5957 103.05 33.0059C102.57 33.416 102.33 33.9785 102.33 34.6934H97.2495C97.2495 33.5918 97.5894 32.5723 98.2691 31.6348C98.9488 30.6973 99.9097 29.9648 101.152 29.4375C102.394 28.8984 103.789 28.6289 105.335 28.6289C107.679 28.6289 109.537 29.2207 110.908 30.4043C112.291 31.5762 112.982 33.2285 112.982 35.3613V43.6055C112.994 45.4102 113.246 46.7754 113.738 47.7012V48H108.605ZM104.404 44.4668C105.154 44.4668 105.845 44.3027 106.478 43.9746C107.111 43.6348 107.58 43.1836 107.884 42.6211V39.3516H105.986C103.443 39.3516 102.089 40.2305 101.925 41.9883L101.908 42.2871C101.908 42.9199 102.13 43.4414 102.576 43.8516C103.021 44.2617 103.63 44.4668 104.404 44.4668ZM120.208 28.9805L120.366 31.1074C121.714 29.4551 123.536 28.6289 125.833 28.6289C128.282 28.6289 129.964 29.5957 130.878 31.5293C132.214 29.5957 134.118 28.6289 136.591 28.6289C138.653 28.6289 140.188 29.2324 141.196 30.4395C142.204 31.6348 142.708 33.4395 142.708 35.8535V48H137.61V35.8711C137.61 34.793 137.399 34.0078 136.978 33.5156C136.556 33.0117 135.811 32.7598 134.745 32.7598C133.222 32.7598 132.167 33.4863 131.581 34.9395L131.599 48H126.519V35.8887C126.519 34.7871 126.302 33.9902 125.868 33.498C125.435 33.0059 124.696 32.7598 123.653 32.7598C122.212 32.7598 121.169 33.3574 120.524 34.5527V48H115.444V28.9805H120.208ZM149.952 28.9805L150.11 31.1074C151.457 29.4551 153.28 28.6289 155.577 28.6289C158.026 28.6289 159.707 29.5957 160.621 31.5293C161.957 29.5957 163.862 28.6289 166.334 28.6289C168.397 28.6289 169.932 29.2324 170.94 30.4395C171.948 31.6348 172.452 33.4395 172.452 35.8535V48H167.354V35.8711C167.354 34.793 167.143 34.0078 166.721 33.5156C166.299 33.0117 165.555 32.7598 164.489 32.7598C162.965 32.7598 161.911 33.4863 161.325 34.9395L161.342 48H156.262V35.8887C156.262 34.7871 156.045 33.9902 155.612 33.498C155.178 33.0059 154.44 32.7598 153.397 32.7598C151.955 32.7598 150.913 33.3574 150.268 34.5527V48H145.188V28.9805H149.952ZM180.293 48H175.195V28.9805H180.293V48ZM174.896 24.0586C174.896 23.2969 175.148 22.6699 175.652 22.1777C176.168 21.6855 176.865 21.4395 177.744 21.4395C178.611 21.4395 179.303 21.6855 179.818 22.1777C180.334 22.6699 180.592 23.2969 180.592 24.0586C180.592 24.832 180.328 25.4648 179.801 25.957C179.285 26.4492 178.599 26.6953 177.744 26.6953C176.889 26.6953 176.197 26.4492 175.67 25.957C175.154 25.4648 174.896 24.832 174.896 24.0586ZM187.73 28.9805L187.888 31.1777C189.247 29.4785 191.07 28.6289 193.355 28.6289C195.37 28.6289 196.87 29.2207 197.855 30.4043C198.839 31.5879 199.343 33.3574 199.366 35.7129V48H194.286V35.8359C194.286 34.7578 194.052 33.9785 193.583 33.498C193.115 33.0059 192.335 32.7598 191.245 32.7598C189.816 32.7598 188.743 33.3691 188.029 34.5879V48H182.949V28.9805H187.73ZM201.055 38.3496C201.055 35.4316 201.747 33.082 203.13 31.3008C204.524 29.5195 206.399 28.6289 208.755 28.6289C210.841 28.6289 212.464 29.3438 213.624 30.7734L213.835 28.9805H218.44V47.3672C218.44 49.0312 218.059 50.4785 217.298 51.709C216.548 52.9395 215.487 53.877 214.116 54.5215C212.745 55.166 211.139 55.4883 209.3 55.4883C207.905 55.4883 206.546 55.207 205.221 54.6445C203.897 54.0938 202.895 53.3789 202.216 52.5L204.466 49.4062C205.731 50.8242 207.266 51.5332 209.071 51.5332C210.419 51.5332 211.468 51.1699 212.218 50.4434C212.968 49.7285 213.343 48.709 213.343 47.3848V46.3652C212.171 47.6895 210.63 48.3516 208.719 48.3516C206.434 48.3516 204.583 47.4609 203.165 45.6797C201.759 43.8867 201.055 41.5137 201.055 38.5605V38.3496ZM206.135 38.7188C206.135 40.4414 206.481 41.7949 207.173 42.7793C207.864 43.752 208.813 44.2383 210.02 44.2383C211.567 44.2383 212.675 43.6582 213.343 42.498V34.5C212.663 33.3398 211.567 32.7598 210.055 32.7598C208.837 32.7598 207.876 33.2578 207.173 34.2539C206.481 35.25 206.135 36.7383 206.135 38.7188ZM233.806 48H228.709V21H233.806V48ZM247.589 48C247.355 47.543 247.185 46.9746 247.079 46.2949C245.849 47.666 244.249 48.3516 242.28 48.3516C240.417 48.3516 238.87 47.8125 237.64 46.7344C236.421 45.6562 235.812 44.2969 235.812 42.6562C235.812 40.6406 236.556 39.0938 238.044 38.0156C239.544 36.9375 241.706 36.3926 244.53 36.3809H246.868V35.291C246.868 34.4121 246.64 33.709 246.183 33.1816C245.737 32.6543 245.028 32.3906 244.056 32.3906C243.2 32.3906 242.526 32.5957 242.034 33.0059C241.554 33.416 241.314 33.9785 241.314 34.6934H236.233C236.233 33.5918 236.573 32.5723 237.253 31.6348C237.933 30.6973 238.894 29.9648 240.136 29.4375C241.378 28.8984 242.773 28.6289 244.319 28.6289C246.663 28.6289 248.521 29.2207 249.892 30.4043C251.274 31.5762 251.966 33.2285 251.966 35.3613V43.6055C251.978 45.4102 252.23 46.7754 252.722 47.7012V48H247.589ZM243.388 44.4668C244.138 44.4668 244.829 44.3027 245.462 43.9746C246.095 43.6348 246.564 43.1836 246.868 42.6211V39.3516H244.97C242.427 39.3516 241.073 40.2305 240.909 41.9883L240.892 42.2871C240.892 42.9199 241.114 43.4414 241.56 43.8516C242.005 44.2617 242.614 44.4668 243.388 44.4668ZM259.104 28.9805L259.262 31.1777C260.622 29.4785 262.444 28.6289 264.729 28.6289C266.745 28.6289 268.245 29.2207 269.229 30.4043C270.213 31.5879 270.717 33.3574 270.741 35.7129V48H265.661V35.8359C265.661 34.7578 265.426 33.9785 264.958 33.498C264.489 33.0059 263.709 32.7598 262.62 32.7598C261.19 32.7598 260.118 33.3691 259.403 34.5879V48H254.323V28.9805H259.104ZM272.43 38.3496C272.43 35.4316 273.121 33.082 274.504 31.3008C275.898 29.5195 277.773 28.6289 280.129 28.6289C282.215 28.6289 283.838 29.3438 284.998 30.7734L285.209 28.9805H289.814V47.3672C289.814 49.0312 289.434 50.4785 288.672 51.709C287.922 52.9395 286.861 53.877 285.49 54.5215C284.119 55.166 282.514 55.4883 280.674 55.4883C279.279 55.4883 277.92 55.207 276.596 54.6445C275.271 54.0938 274.269 53.3789 273.59 52.5L275.84 49.4062C277.105 50.8242 278.641 51.5332 280.445 51.5332C281.793 51.5332 282.842 51.1699 283.592 50.4434C284.342 49.7285 284.717 48.709 284.717 47.3848V46.3652C283.545 47.6895 282.004 48.3516 280.094 48.3516C277.809 48.3516 275.957 47.4609 274.539 45.6797C273.133 43.8867 272.43 41.5137 272.43 38.5605V38.3496ZM277.51 38.7188C277.51 40.4414 277.855 41.7949 278.547 42.7793C279.238 43.752 280.187 44.2383 281.394 44.2383C282.941 44.2383 284.049 43.6582 284.717 42.498V34.5C284.037 33.3398 282.941 32.7598 281.43 32.7598C280.211 32.7598 279.25 33.2578 278.547 34.2539C277.855 35.25 277.51 36.7383 277.51 38.7188ZM303.685 46.0664C302.431 47.5898 300.697 48.3516 298.482 48.3516C296.443 48.3516 294.884 47.7656 293.806 46.5938C292.74 45.4219 292.195 43.7051 292.171 41.4434V28.9805H297.251V41.2676C297.251 43.248 298.154 44.2383 299.958 44.2383C301.681 44.2383 302.865 43.6406 303.509 42.4453V28.9805H308.607V48H303.826L303.685 46.0664ZM322.02 48C321.786 47.543 321.616 46.9746 321.511 46.2949C320.28 47.666 318.68 48.3516 316.712 48.3516C314.848 48.3516 313.302 47.8125 312.071 46.7344C310.852 45.6562 310.243 44.2969 310.243 42.6562C310.243 40.6406 310.987 39.0938 312.475 38.0156C313.975 36.9375 316.138 36.3926 318.962 36.3809H321.3V35.291C321.3 34.4121 321.071 33.709 320.614 33.1816C320.169 32.6543 319.46 32.3906 318.487 32.3906C317.632 32.3906 316.958 32.5957 316.466 33.0059C315.985 33.416 315.745 33.9785 315.745 34.6934H310.665C310.665 33.5918 311.005 32.5723 311.684 31.6348C312.364 30.6973 313.325 29.9648 314.567 29.4375C315.809 28.8984 317.204 28.6289 318.751 28.6289C321.095 28.6289 322.952 29.2207 324.323 30.4043C325.706 31.5762 326.397 33.2285 326.397 35.3613V43.6055C326.409 45.4102 326.661 46.7754 327.153 47.7012V48H322.02ZM317.819 44.4668C318.569 44.4668 319.261 44.3027 319.893 43.9746C320.526 43.6348 320.995 43.1836 321.3 42.6211V39.3516H319.401C316.858 39.3516 315.505 40.2305 315.341 41.9883L315.323 42.2871C315.323 42.9199 315.546 43.4414 315.991 43.8516C316.436 44.2617 317.046 44.4668 317.819 44.4668ZM328.121 38.3496C328.121 35.4316 328.813 33.082 330.196 31.3008C331.59 29.5195 333.465 28.6289 335.821 28.6289C337.906 28.6289 339.53 29.3438 340.69 30.7734L340.901 28.9805H345.506V47.3672C345.506 49.0312 345.125 50.4785 344.364 51.709C343.614 52.9395 342.553 53.877 341.182 54.5215C339.811 55.166 338.205 55.4883 336.365 55.4883C334.971 55.4883 333.612 55.207 332.287 54.6445C330.963 54.0938 329.961 53.3789 329.281 52.5L331.531 49.4062C332.797 50.8242 334.332 51.5332 336.137 51.5332C337.485 51.5332 338.533 51.1699 339.283 50.4434C340.033 49.7285 340.408 48.709 340.408 47.3848V46.3652C339.237 47.6895 337.696 48.3516 335.785 48.3516C333.5 48.3516 331.649 47.4609 330.231 45.6797C328.824 43.8867 328.121 41.5137 328.121 38.5605V38.3496ZM333.201 38.7188C333.201 40.4414 333.547 41.7949 334.239 42.7793C334.93 43.752 335.879 44.2383 337.086 44.2383C338.633 44.2383 339.74 43.6582 340.408 42.498V34.5C339.729 33.3398 338.633 32.7598 337.121 32.7598C335.903 32.7598 334.942 33.2578 334.239 34.2539C333.547 35.25 333.201 36.7383 333.201 38.7188ZM356.74 48.3516C353.951 48.3516 351.677 47.4961 349.92 45.7852C348.174 44.0742 347.3 41.7949 347.3 38.9473V38.4551C347.3 36.5449 347.67 34.8398 348.408 33.3398C349.146 31.8281 350.189 30.668 351.537 29.8594C352.896 29.0391 354.443 28.6289 356.177 28.6289C358.779 28.6289 360.824 29.4492 362.312 31.0898C363.812 32.7305 364.562 35.0566 364.562 38.0684V40.1426H352.451C352.615 41.3848 353.107 42.3809 353.927 43.1309C354.759 43.8809 355.808 44.2559 357.074 44.2559C359.031 44.2559 360.56 43.5469 361.662 42.1289L364.158 44.9238C363.396 46.002 362.365 46.8457 361.064 47.4551C359.763 48.0527 358.322 48.3516 356.74 48.3516ZM356.16 32.7422C355.152 32.7422 354.332 33.082 353.699 33.7617C353.078 34.4414 352.679 35.4141 352.504 36.6797H359.57V36.2754C359.547 35.1504 359.242 34.2832 358.656 33.6738C358.07 33.0527 357.238 32.7422 356.16 32.7422Z" fill="white"/>
</svg>
